<svg xmlns="http://www.w3.org/2000/svg" style="display: none;">
  <defs>
    <!-- Alarm -->
    <symbol id="alarm" viewBox="0 0 24 24">
      <circle cx="12" cy="13" r="8" fill="none" stroke="currentColor" stroke-width="2"/>
      <path d="M12 6v7l3 3" fill="none" stroke="currentColor" stroke-width="2"/>
      <path d="M4 4l3 3m10-3l3 3" fill="none" stroke="currentColor" stroke-width="2"/>
    </symbol>
    
    <!-- Meeting -->
    <symbol id="meeting" viewBox="0 0 24 24">
      <path d="M17 21v-2a4 4 0 0 0-4-4H5a4 4 0 0 0-4 4v2" fill="none" stroke="currentColor" stroke-width="2"/>
      <circle cx="9" cy="7" r="4" fill="none" stroke="currentColor" stroke-width="2"/>
      <path d="M23 21v-2a4 4 0 0 0-3-3.87m-4-12a4 4 0 0 1 0 7.75" fill="none" stroke="currentColor" stroke-width="2"/>
    </symbol>
    
    <!-- Coffee -->
    <symbol id="coffee" viewBox="0 0 24 24">
      <path d="M18 8h1a4 4 0 0 1 0 8h-1" fill="none" stroke="currentColor" stroke-width="2"/>
      <path d="M2 8h16v9a4 4 0 0 1-4 4H6a4 4 0 0 1-4-4V8z" fill="none" stroke="currentColor" stroke-width="2"/>
      <path d="M6 1v3m4-3v3m4-3v3" fill="none" stroke="currentColor" stroke-width="2"/>
    </symbol>
    
    <!-- Food -->
    <symbol id="food" viewBox="0 0 24 24">
      <path d="M12 2l8 4-8 4-8-4 8-4z" fill="none" stroke="currentColor" stroke-width="2"/>
      <path d="M12 10v12" fill="none" stroke="currentColor" stroke-width="2"/>
      <path d="M4 6v12l8 4 8-4V6" fill="none" stroke="currentColor" stroke-width="2"/>
    </symbol>
    
    <!-- Laptop -->
    <symbol id="laptop" viewBox="0 0 24 24">
      <rect x="2" y="3" width="20" height="14" rx="2" fill="none" stroke="currentColor" stroke-width="2"/>
      <path d="M2 20h20" fill="none" stroke="currentColor" stroke-width="2"/>
    </symbol>
    
    <!-- Gym -->
    <symbol id="gym" viewBox="0 0 24 24">
      <path d="M20 12h-4m-8 0H4m8-5v10" fill="none" stroke="currentColor" stroke-width="2"/>
      <circle cx="12" cy="7" r="3" fill="none" stroke="currentColor" stroke-width="2"/>
      <circle cx="12" cy="17" r="3" fill="none" stroke="currentColor" stroke-width="2"/>
      <circle cx="20" cy="12" r="2" fill="none" stroke="currentColor" stroke-width="2"/>
      <circle cx="4" cy="12" r="2" fill="none" stroke="currentColor" stroke-width="2"/>
    </symbol>
    
    <!-- Moon -->
    <symbol id="moon" viewBox="0 0 24 24">
      <path d="M21 12.79A9 9 0 1 1 11.21 3 7 7 0 0 0 21 12.79z" fill="none" stroke="currentColor" stroke-width="2"/>
    </symbol>
    
    <!-- Book -->
    <symbol id="book" viewBox="0 0 24 24">
      <path d="M4 19.5A2.5 2.5 0 0 1 6.5 17H20" fill="none" stroke="currentColor" stroke-width="2"/>
      <path d="M6.5 2H20v20H6.5A2.5 2.5 0 0 1 4 19.5v-15A2.5 2.5 0 0 1 6.5 2z" fill="none" stroke="currentColor" stroke-width="2"/>
    </symbol>
    
    <!-- Water -->
    <symbol id="water" viewBox="0 0 24 24">
      <path d="M12 2.69l5.66 5.66a8 8 0 1 1-11.31 0z" fill="none" stroke="currentColor" stroke-width="2"/>
    </symbol>
    
    <!-- Run -->
    <symbol id="run" viewBox="0 0 24 24">
      <circle cx="13" cy="4" r="2" fill="none" stroke="currentColor" stroke-width="2"/>
      <path d="M13 7v10l-4 4m6-14l-1 4l4 3l3-3" fill="none" stroke="currentColor" stroke-width="2"/>
    </symbol>
    
    <!-- Meditation -->
    <symbol id="meditation" viewBox="0 0 24 24">
      <circle cx="12" cy="8" r="3" fill="none" stroke="currentColor" stroke-width="2"/>
      <path d="M12 11v10m-5-10l-2 8h14l-2-8" fill="none" stroke="currentColor" stroke-width="2"/>
    </symbol>
    
    <!-- Heart -->
    <symbol id="heart" viewBox="0 0 24 24">
      <path d="M20.84 4.61a5.5 5.5 0 0 0-7.78 0L12 5.67l-1.06-1.06a5.5 5.5 0 0 0-7.78 7.78l1.06 1.06L12 21.23l7.78-7.78 1.06-1.06a5.5 5.5 0 0 0 0-7.78z" fill="none" stroke="currentColor" stroke-width="2"/>
    </symbol>
    
    <!-- Star -->
    <symbol id="star" viewBox="0 0 24 24">
      <polygon points="12 2 15.09 8.26 22 9.27 17 14.14 18.18 21.02 12 17.77 5.82 21.02 7 14.14 2 9.27 8.91 8.26 12 2" fill="none" stroke="currentColor" stroke-width="2"/>
    </symbol>
    
    <!-- Check -->
    <symbol id="check" viewBox="0 0 24 24">
      <polyline points="20 6 9 17 4 12" fill="none" stroke="currentColor" stroke-width="2"/>
    </symbol>
    
    <!-- Plus -->
    <symbol id="plus" viewBox="0 0 24 24">
      <line x1="12" y1="5" x2="12" y2="19" stroke="currentColor" stroke-width="2"/>
      <line x1="5" y1="12" x2="19" y2="12" stroke="currentColor" stroke-width="2"/>
    </symbol>
    
    <!-- Home -->
    <symbol id="home" viewBox="0 0 24 24">
      <path d="M3 9l9-7 9 7v11a2 2 0 0 1-2 2H5a2 2 0 0 1-2-2z" fill="none" stroke="currentColor" stroke-width="2"/>
      <polyline points="9 22 9 12 15 12 15 22" fill="none" stroke="currentColor" stroke-width="2"/>
    </symbol>
    
    <!-- Shower -->
    <symbol id="shower" viewBox="0 0 24 24">
      <path d="M12 2v8m-8 4h16m-8 0v8m-4-4v4m8-4v4m-12-8v4" fill="none" stroke="currentColor" stroke-width="2"/>
    </symbol>
    
    <!-- Bed -->
    <symbol id="bed" viewBox="0 0 24 24">
      <path d="M3 7v11h18V7" fill="none" stroke="currentColor" stroke-width="2"/>
      <path d="M3 11h18" fill="none" stroke="currentColor" stroke-width="2"/>
      <path d="M7 11v-4h3v4m4 0v-4h3v4" fill="none" stroke="currentColor" stroke-width="2"/>
    </symbol>
    
    <!-- Phone -->
    <symbol id="phone" viewBox="0 0 24 24">
      <rect x="5" y="2" width="14" height="20" rx="2" fill="none" stroke="currentColor" stroke-width="2"/>
      <circle cx="12" cy="18" r="1" fill="none" stroke="currentColor" stroke-width="2"/>
    </symbol>
    
    <!-- Email -->
    <symbol id="email" viewBox="0 0 24 24">
      <path d="M4 4h16c1.1 0 2 .9 2 2v12c0 1.1-.9 2-2 2H4c-1.1 0-2-.9-2-2V6c0-1.1.9-2 2-2z" fill="none" stroke="currentColor" stroke-width="2"/>
      <polyline points="22,6 12,13 2,6" fill="none" stroke="currentColor" stroke-width="2"/>
    </symbol>
    
    <!-- Code -->
    <symbol id="code" viewBox="0 0 24 24">
      <polyline points="16 18 22 12 16 6" fill="none" stroke="currentColor" stroke-width="2"/>
      <polyline points="8 6 2 12 8 18" fill="none" stroke="currentColor" stroke-width="2"/>
    </symbol>
    
    <!-- Brain -->
    <symbol id="brain" viewBox="0 0 24 24">
      <path d="M9.5 2a4.5 4.5 0 0 0-1 8.88V19a2 2 0 0 0 4 0v-1h1v1a2 2 0 0 0 4 0v-8.12A4.5 4.5 0 0 0 14.5 2h-5z" fill="none" stroke="currentColor" stroke-width="2"/>
    </symbol>
    
    <!-- Target -->
    <symbol id="target" viewBox="0 0 24 24">
      <circle cx="12" cy="12" r="10" fill="none" stroke="currentColor" stroke-width="2"/>
      <circle cx="12" cy="12" r="6" fill="none" stroke="currentColor" stroke-width="2"/>
      <circle cx="12" cy="12" r="2" fill="none" stroke="currentColor" stroke-width="2"/>
    </symbol>
    
    <!-- Chart -->
    <symbol id="chart" viewBox="0 0 24 24">
      <line x1="18" y1="20" x2="18" y2="10" stroke="currentColor" stroke-width="2"/>
      <line x1="12" y1="20" x2="12" y2="4" stroke="currentColor" stroke-width="2"/>
      <line x1="6" y1="20" x2="6" y2="14" stroke="currentColor" stroke-width="2"/>
    </symbol>
    
    <!-- Calendar -->
    <symbol id="calendar" viewBox="0 0 24 24">
      <rect x="3" y="4" width="18" height="18" rx="2" fill="none" stroke="currentColor" stroke-width="2"/>
      <line x1="16" y1="2" x2="16" y2="6" stroke="currentColor" stroke-width="2"/>
      <line x1="8" y1="2" x2="8" y2="6" stroke="currentColor" stroke-width="2"/>
      <line x1="3" y1="10" x2="21" y2="10" stroke="currentColor" stroke-width="2"/>
    </symbol>
    
    <!-- Search -->
    <symbol id="search" viewBox="0 0 24 24">
      <circle cx="11" cy="11" r="8" fill="none" stroke="currentColor" stroke-width="2"/>
      <path d="m21 21-4.35-4.35" fill="none" stroke="currentColor" stroke-width="2"/>
    </symbol>
  </defs>
</svg>